<mxfile host="app.diagrams.net" agent="Mozilla/5.0 (Macintosh; Intel Mac OS X 10_15_7) AppleWebKit/537.36 (KHTML, like Gecko) Chrome/131.0.0.0 Safari/537.36" version="24.8.6">
  <diagram name="第 1 页" id="x03XVXtvc5QJekhoTLDu">
    <mxGraphModel dx="954" dy="498" grid="1" gridSize="10" guides="1" tooltips="1" connect="1" arrows="1" fold="1" page="1" pageScale="1" pageWidth="827" pageHeight="1169" math="0" shadow="0">
      <root>
        <mxCell id="0" />
        <mxCell id="1" parent="0" />
        <mxCell id="oyR8X16q20PusS25x0oU-1" value="" style="rounded=0;whiteSpace=wrap;html=1;" vertex="1" parent="1">
          <mxGeometry x="80" y="80" width="160" height="360" as="geometry" />
        </mxCell>
        <mxCell id="oyR8X16q20PusS25x0oU-2" value="项目列表" style="text;strokeColor=none;align=center;fillColor=none;html=1;verticalAlign=middle;whiteSpace=wrap;rounded=0;fontSize=16;" vertex="1" parent="1">
          <mxGeometry x="80" y="80" width="160" height="30" as="geometry" />
        </mxCell>
        <mxCell id="oyR8X16q20PusS25x0oU-3" value="项目名称" style="text;strokeColor=none;align=left;fillColor=none;html=1;verticalAlign=middle;whiteSpace=wrap;rounded=0;fontSize=12;" vertex="1" parent="1">
          <mxGeometry x="100" y="120" width="120" height="30" as="geometry" />
        </mxCell>
        <mxCell id="oyR8X16q20PusS25x0oU-4" value="项目编码" style="text;strokeColor=none;align=left;fillColor=none;html=1;verticalAlign=middle;whiteSpace=wrap;rounded=0;fontSize=12;" vertex="1" parent="1">
          <mxGeometry x="100" y="150" width="120" height="30" as="geometry" />
        </mxCell>
        <mxCell id="oyR8X16q20PusS25x0oU-5" value="创建时间" style="text;strokeColor=none;align=left;fillColor=none;html=1;verticalAlign=middle;whiteSpace=wrap;rounded=0;fontSize=12;" vertex="1" parent="1">
          <mxGeometry x="100" y="180" width="120" height="30" as="geometry" />
        </mxCell>
        <mxCell id="oyR8X16q20PusS25x0oU-6" value="" style="rounded=0;whiteSpace=wrap;html=1;" vertex="1" parent="1">
          <mxGeometry x="260" y="80" width="160" height="360" as="geometry" />
        </mxCell>
        <mxCell id="oyR8X16q20PusS25x0oU-7" value="数据结构列表" style="text;strokeColor=none;align=center;fillColor=none;html=1;verticalAlign=middle;whiteSpace=wrap;rounded=0;fontSize=16;" vertex="1" parent="1">
          <mxGeometry x="260" y="80" width="160" height="30" as="geometry" />
        </mxCell>
        <mxCell id="oyR8X16q20PusS25x0oU-8" value="表名称" style="text;strokeColor=none;align=left;fillColor=none;html=1;verticalAlign=middle;whiteSpace=wrap;rounded=0;fontSize=12;" vertex="1" parent="1">
          <mxGeometry x="280" y="120" width="120" height="30" as="geometry" />
        </mxCell>
        <mxCell id="oyR8X16q20PusS25x0oU-21" style="edgeStyle=orthogonalEdgeStyle;rounded=0;orthogonalLoop=1;jettySize=auto;html=1;exitX=0.25;exitY=0;exitDx=0;exitDy=0;entryX=0.25;entryY=1;entryDx=0;entryDy=0;" edge="1" parent="1" source="oyR8X16q20PusS25x0oU-9" target="oyR8X16q20PusS25x0oU-8">
          <mxGeometry relative="1" as="geometry" />
        </mxCell>
        <mxCell id="oyR8X16q20PusS25x0oU-9" value="表编码" style="text;strokeColor=none;align=left;fillColor=none;html=1;verticalAlign=middle;whiteSpace=wrap;rounded=0;fontSize=12;" vertex="1" parent="1">
          <mxGeometry x="280" y="150" width="120" height="30" as="geometry" />
        </mxCell>
        <mxCell id="oyR8X16q20PusS25x0oU-10" value="创建时间" style="text;strokeColor=none;align=left;fillColor=none;html=1;verticalAlign=middle;whiteSpace=wrap;rounded=0;fontSize=12;" vertex="1" parent="1">
          <mxGeometry x="280" y="180" width="120" height="30" as="geometry" />
        </mxCell>
        <mxCell id="oyR8X16q20PusS25x0oU-11" value="" style="rounded=0;whiteSpace=wrap;html=1;" vertex="1" parent="1">
          <mxGeometry x="440" y="80" width="160" height="360" as="geometry" />
        </mxCell>
        <mxCell id="oyR8X16q20PusS25x0oU-12" value="表单列表" style="text;strokeColor=none;align=center;fillColor=none;html=1;verticalAlign=middle;whiteSpace=wrap;rounded=0;fontSize=16;" vertex="1" parent="1">
          <mxGeometry x="440" y="80" width="160" height="30" as="geometry" />
        </mxCell>
        <mxCell id="oyR8X16q20PusS25x0oU-13" value="表单名称" style="text;strokeColor=none;align=left;fillColor=none;html=1;verticalAlign=middle;whiteSpace=wrap;rounded=0;fontSize=12;" vertex="1" parent="1">
          <mxGeometry x="460" y="120" width="120" height="30" as="geometry" />
        </mxCell>
        <mxCell id="oyR8X16q20PusS25x0oU-14" value="表单编码" style="text;strokeColor=none;align=left;fillColor=none;html=1;verticalAlign=middle;whiteSpace=wrap;rounded=0;fontSize=12;" vertex="1" parent="1">
          <mxGeometry x="460" y="150" width="120" height="30" as="geometry" />
        </mxCell>
        <mxCell id="oyR8X16q20PusS25x0oU-15" value="创建时间" style="text;strokeColor=none;align=left;fillColor=none;html=1;verticalAlign=middle;whiteSpace=wrap;rounded=0;fontSize=12;" vertex="1" parent="1">
          <mxGeometry x="460" y="180" width="120" height="30" as="geometry" />
        </mxCell>
        <mxCell id="oyR8X16q20PusS25x0oU-16" value="" style="rounded=0;whiteSpace=wrap;html=1;" vertex="1" parent="1">
          <mxGeometry x="620" y="80" width="160" height="360" as="geometry" />
        </mxCell>
        <mxCell id="oyR8X16q20PusS25x0oU-17" value="表格列表" style="text;strokeColor=none;align=center;fillColor=none;html=1;verticalAlign=middle;whiteSpace=wrap;rounded=0;fontSize=16;" vertex="1" parent="1">
          <mxGeometry x="620" y="80" width="160" height="30" as="geometry" />
        </mxCell>
        <mxCell id="oyR8X16q20PusS25x0oU-18" value="表格名称" style="text;strokeColor=none;align=left;fillColor=none;html=1;verticalAlign=middle;whiteSpace=wrap;rounded=0;fontSize=12;" vertex="1" parent="1">
          <mxGeometry x="640" y="120" width="120" height="30" as="geometry" />
        </mxCell>
        <mxCell id="oyR8X16q20PusS25x0oU-19" value="表格编码" style="text;strokeColor=none;align=left;fillColor=none;html=1;verticalAlign=middle;whiteSpace=wrap;rounded=0;fontSize=12;" vertex="1" parent="1">
          <mxGeometry x="640" y="150" width="120" height="30" as="geometry" />
        </mxCell>
        <mxCell id="oyR8X16q20PusS25x0oU-20" value="创建时间" style="text;strokeColor=none;align=left;fillColor=none;html=1;verticalAlign=middle;whiteSpace=wrap;rounded=0;fontSize=12;" vertex="1" parent="1">
          <mxGeometry x="640" y="180" width="120" height="30" as="geometry" />
        </mxCell>
      </root>
    </mxGraphModel>
  </diagram>
</mxfile>
